<svg xmlns="http://www.w3.org/2000/svg" viewBox="0 0 100 100" preserveAspectRatio="xMidYMid" width="205" height="205" style="shape-rendering: auto; display: block; background: rgb(255, 255, 255);" xmlns:xlink="http://www.w3.org/1999/xlink"><g><g transform="translate(50 50)">
<g>
<animateTransform repeatCount="indefinite" dur="0.24213075060532688s" keyTimes="0;1" values="0;32.72727272727273" type="rotate" attributeName="transform"></animateTransform><path fill="#008080" d="M24.819347291981714 -3 L34.819347291981714 -3 L34.819347291981714 3 L24.819347291981714 3 A25 25 0 0 1 22.50128604431042 10.894591610157821 L22.50128604431042 10.894591610157821 L30.91382137262223 16.300999784713795 L27.669976467888645 21.348520981700887 L19.257441139576834 15.942112807144909 A25 25 0 0 1 13.039225464060472 21.330227361596428 L13.039225464060472 21.330227361596428 L17.193375594079335 30.42654731514161 L11.73558362195223 32.919037393152934 L7.581433491933365 23.822717439607747 A25 25 0 0 1 -0.562697070264075 24.993666637912817 L-0.562697070264075 24.993666637912817 L-1.9858454529969252 34.89188105672214 L-7.924774104282519 34.03799202708243 L-6.501625721549669 24.139777608273107 A25 25 0 0 1 -13.985967260607293 20.721793353501546 L-13.985967260607293 20.721793353501546 L-20.534574600060143 28.279289097044128 L-25.069072046185692 24.350124693372422 L-18.52046470673284 16.79262894982984 A25 25 0 0 1 -22.968791665830167 9.87089709254891 L-22.968791665830167 9.87089709254891 L-32.563721401975144 12.688222660963206 L-34.254116743023715 6.931264819276227 L-24.659187006878746 4.113939250861931 A25 25 0 0 1 -24.659187006878746 -4.113939250861924 L-24.659187006878746 -4.113939250861924 L-34.25411674302372 -6.931264819276218 L-32.563721401975144 -12.688222660963199 L-22.96879166583017 -9.870897092548905 A25 25 0 0 1 -18.520464706732845 -16.792628949829837 L-18.520464706732845 -16.792628949829837 L-25.069072046185696 -24.35012469337242 L-20.53457460006014 -28.27928909704413 L-13.985967260607291 -20.72179335350155 A25 25 0 0 1 -6.501625721549674 -24.139777608273107 L-6.501625721549674 -24.139777608273107 L-7.924774104282527 -34.03799202708243 L-1.9858454529969336 -34.89188105672214 L-0.5626970702640812 -24.993666637912817 A25 25 0 0 1 7.581433491933353 -23.82271743960775 L7.581433491933353 -23.82271743960775 L11.735583621952212 -32.919037393152934 L17.19337559407932 -30.42654731514162 L13.039225464060461 -21.330227361596435 A25 25 0 0 1 19.257441139576837 -15.942112807144907 L19.257441139576837 -15.942112807144907 L27.669976467888652 -21.34852098170088 L30.91382137262223 -16.300999784713795 L22.50128604431042 -10.894591610157821 A25 25 0 0 1 24.819347291981714 -3.000000000000004 M0 -21A21 21 0 1 0 0 21 A21 21 0 1 0 0 -21"></path></g></g><g></g></g><!-- [ldio] generated by https://loading.io --></svg>