<svg xmlns="http://www.w3.org/2000/svg" shape-rendering="geometricPrecision" text-rendering="geometricPrecision" image-rendering="optimizeQuality" fill-rule="evenodd" clip-rule="evenodd" viewBox="0 0 512 281.854"><path fill-rule="nonzero" d="M132.286 15.62a5.197 5.197 0 01-1.811-.282c-16.156 7.216-29.231 23.094-32.781 49.527-.377 2.916-3.153 4.96-6.187 4.609-3.034-.377-5.173-3.034-4.796-5.928 4.137-30.806 19.942-49.432 39.487-57.994 9.85-4.327 20.601-6.043 31.229-5.432C168.036.707 178.546 3.6 188 8.491c20.014 10.373 35.255 29.75 36.36 55.551.115 2.939-2.26 5.409-5.317 5.527-3.058.115-5.619-2.165-5.738-5.104-.918-21.615-13.734-37.862-30.55-46.589a63.394 63.394 0 00-2.185-1.082 5.43 5.43 0 01-1.978.305c-5.032-.118-6.347 8.844-6.652 20.932-.141 5.41-.027 11.383.091 17.472.096 4.845.191 9.785.191 13.076 0 2.988-2.47 5.409-5.505 5.409-3.034 0-5.504-2.421-5.504-5.409 0-5.361-.069-9.172-.141-12.909-.115-6.233-.233-12.301-.092-17.898.282-10.914 1.574-20.131 5.573-25.705a65.166 65.166 0 00-9.759-1.315 61.09 61.09 0 00-12.279.537c3.671 5.692 4.918 14.795 5.2 25.496.141 5.783.023 12.088-.095 18.554-.069 3.857-.141 7.784-.141 13.24a5.358 5.358 0 01-5.36 5.363 5.36 5.36 0 01-5.364-5.363c0-3.409.095-8.441.187-13.404.118-6.351.236-12.535.095-18.131-.282-12.397-1.624-21.569-6.751-21.424zm204.163 0a5.197 5.197 0 01-1.811-.282c-16.156 7.216-29.232 23.094-32.781 49.527-.377 2.916-3.153 4.96-6.187 4.609-3.034-.377-5.173-3.034-4.796-5.928 4.137-30.806 19.942-49.432 39.486-57.994 9.851-4.327 20.601-6.043 31.23-5.432 10.609.587 21.119 3.48 30.573 8.371 20.014 10.373 35.255 29.75 36.36 55.551.115 2.939-2.26 5.409-5.317 5.527-3.058.115-5.62-2.165-5.738-5.104-.918-21.615-13.735-37.862-30.55-46.589a65.247 65.247 0 00-2.185-1.082 5.43 5.43 0 01-1.978.305c-5.032-.118-6.348 8.844-6.653 20.932-.141 5.41-.026 11.383.092 17.472.095 4.845.19 9.785.19 13.076 0 2.988-2.47 5.409-5.504 5.409-3.034 0-5.505-2.421-5.505-5.409 0-5.361-.069-9.172-.141-12.909-.115-6.233-.233-12.301-.092-17.898.283-10.914 1.575-20.131 5.574-25.705a65.184 65.184 0 00-9.759-1.315 61.09 61.09 0 00-12.279.537c3.671 5.692 4.918 14.795 5.2 25.496.141 5.783.023 12.088-.096 18.554-.068 3.857-.141 7.784-.141 13.24a5.358 5.358 0 01-5.36 5.363 5.359 5.359 0 01-5.363-5.363c0-3.409.095-8.441.187-13.404.118-6.351.236-12.535.095-18.131-.282-12.397-1.624-21.569-6.751-21.424zm86.793 72.293a84.928 84.928 0 011.174 3.018l.017.053a85.056 85.056 0 011.581 4.779l.039.167c.604 3.13.978 4.721 1.204 5.679l.016.079c.174.744.269 1.145.315 1.633.046.502.033 1.02.01 2.08-.026 1.083-.072 2.756-.075 5.567l-.004.102c-.137 1.873-.452 3.851-.882 5.816a57.283 57.283 0 01-1.729 6.2l-.026.069c-1.286 3.631-3.028 6.911-5.065 9.3-1.732 2.03-3.71 3.447-5.849 3.953l-1.181 4.425c-3.569 13.167-10.618 24.708-20.119 32.719l-.092.072c-8.965 7.525-20.102 11.921-32.557 11.589-13.116-.209-24.082-4.956-32.867-12.688-9.756-8.585-16.819-20.857-21.145-34.674-.22-.906-.594-1.912-.886-2.818-3.487-.43-6.23-3.015-8.309-6.436-3.12-5.137-4.787-12.289-5.197-16.418-.39-3.918.23-8.179 1.316-12.325.961-3.658 2.289-7.243 3.595-10.409a52.868 52.868 0 01-3.159-1.817c-5.528-3.455-9.713-7.667-12.065-12.626l10.064-4.399c1.437 3.034 4.235 5.76 8.044 8.135 12.301 7.693 33.935 11.383 56.278 11.455 22.53.069 45.483-3.598 60.206-10.583 5.809-2.752 10.159-5.95 12.393-9.526l9.5 5.455c-3.014 4.842-8.06 8.972-14.545 12.374zM306.394 93.71c-3.609 3.618-4.685 10.074-4.285 16.392.243 3.812 1.03 7.574 2.129 10.642 1.044 2.919 2.339 5.153 3.648 6.088l.069.052c.384.263.755.378 1.086.312a3.266 3.266 0 012.506.302 3.614 3.614 0 011.63 1.952c.63 1.732 1.175 3.733 1.729 5.53 4.56 14.467 12.778 25.037 22.481 31.469 7.24 4.803 15.319 7.316 23.317 7.431 7.988.115 15.93-2.146 22.901-6.883 8.506-5.78 15.601-15.26 19.669-28.605.436-1.696.882-3.234 1.371-4.937l.568-1.955c.246-.79.748-1.493 1.378-1.945l.062-.043c.692-.482 1.542-.702 2.388-.538.922.181 2.067-.528 3.221-1.804 1.457-1.611 2.831-4.048 3.848-6.814 1.319-5.924 1.562-10.182 1.047-14.204-.522-4.044-1.854-8.001-3.651-13.243a1.376 1.376 0 01-.059-.652l.009-.109c-28.582 10.239-76.81 12.154-107.062 1.562zm7.594 93.38l24.396 71.755 12.269-42.58-6.013-6.58c-2.716-3.953-3.307-7.417-1.801-10.392 3.257-6.446 9.999-5.242 16.294-5.242 6.597 0 14.742-1.25 16.809 7.007.692 2.762-.181 5.652-2.113 8.627l-6.013 6.58 12.269 42.58 22.09-71.755c15.939 14.342 63.115 17.222 80.665 27.007 5.547 3.094 10.563 7.037 14.598 12.364 10.92 14.421 11.75 37.469 14.562 55.393H326.201c-2.995-21.5-7.919-49.832-15.543-59.897-2.421-3.198-5.167-6.003-8.152-8.486-2.936-2.438-6.081-4.537-9.359-6.367-3.943-2.198-9.018-4.071-14.781-5.777 14.526-3.52 28.336-7.683 35.622-14.237zm-204.163 0l24.396 71.755 12.269-42.58-6.013-6.58c-2.716-3.953-3.306-7.417-1.801-10.392 3.258-6.446 9.999-5.242 16.294-5.242 6.597 0 14.742-1.25 16.809 7.007.692 2.762-.181 5.652-2.113 8.627l-6.013 6.58 12.269 42.58 22.09-71.755c15.94 14.342 63.115 17.222 80.666 27.007 22.198 12.377 22.378 41.96 29.159 67.757H0c2.812-17.924 3.642-40.975 14.562-55.393 4.035-5.331 9.047-9.267 14.601-12.364 17.55-9.788 64.723-12.665 80.662-27.007zm109.254-99.177a84.928 84.928 0 011.174 3.018l.017.053a85.056 85.056 0 011.581 4.779l.039.167c.604 3.13.978 4.721 1.204 5.679l.017.079c.173.744.269 1.145.314 1.633.047.502.033 1.02.01 2.08-.026 1.083-.072 2.756-.075 5.567l-.003.102c-.138 1.873-.453 3.851-.883 5.816a57.283 57.283 0 01-1.729 6.2l-.026.069c-1.286 3.631-3.027 6.911-5.065 9.3-1.732 2.03-3.71 3.447-5.849 3.953l-1.181 4.425c-3.569 13.167-10.619 24.708-20.118 32.719l-.092.072c-8.966 7.525-20.103 11.921-32.558 11.589-13.115-.209-24.082-4.956-32.867-12.688-9.756-8.585-16.818-20.857-21.145-34.674-.217-.899-.594-1.916-.886-2.818-3.487-.43-6.23-3.015-8.309-6.436-3.12-5.137-4.786-12.289-5.196-16.418-.391-3.918.229-8.179 1.315-12.325.958-3.661 2.286-7.243 3.595-10.409a53.184 53.184 0 01-3.159-1.817c-5.527-3.455-9.713-7.667-12.065-12.626l10.064-4.399c1.437 3.034 4.235 5.76 8.044 8.135 12.301 7.693 33.936 11.383 56.279 11.455 22.529.069 45.482-3.598 60.205-10.583 5.809-2.752 10.159-5.95 12.393-9.526l9.5 5.455c-3.014 4.842-8.06 8.972-14.545 12.374zM102.231 93.71c-3.608 3.618-4.685 10.074-4.284 16.392.242 3.812 1.03 7.574 2.129 10.642 1.043 2.919 2.339 5.153 3.647 6.088l.069.052c.384.263.758.378 1.086.312a3.266 3.266 0 012.506.302 3.616 3.616 0 011.631 1.952c.63 1.732 1.174 3.733 1.728 5.53 4.56 14.467 12.778 25.037 22.481 31.469 7.24 4.803 15.32 7.316 23.317 7.431 7.988.115 15.93-2.146 22.901-6.883 8.506-5.78 15.601-15.26 19.669-28.605.437-1.696.883-3.234 1.371-4.937l.568-1.955c.246-.79.748-1.493 1.378-1.945l.062-.043c.692-.482 1.542-.702 2.388-.538.922.181 2.067-.528 3.221-1.804 1.457-1.611 2.831-4.048 3.848-6.814 1.319-5.924 1.562-10.182 1.047-14.204-.522-4.044-1.854-8.001-3.651-13.243a1.389 1.389 0 01-.059-.652l.009-.109c-28.581 10.239-76.81 12.154-107.062 1.562z"/></svg>